<?xml version="1.0" encoding="UTF-8"?>
<svg width="380px" height="550px" viewBox="0 0 380 550" version="1.1" xmlns="http://www.w3.org/2000/svg" xmlns:xlink="http://www.w3.org/1999/xlink">
    <title>8bitballer-baller</title>
    <g id="8bitballer-baller" stroke="none" stroke-width="1" fill="none" fill-rule="evenodd">
        <g id="Group">
            <g id="Foot---Right" transform="translate(140.000000, 440.000000)">
                <g id="Outline" fill="#000000">
                    <rect id="Rectangle" x="50" y="100" width="10" height="10"></rect>
                    <rect id="Rectangle-Copy-17" x="40" y="90" width="10" height="10"></rect>
                    <rect id="Rectangle-Copy-18" x="30" y="80" width="10" height="10"></rect>
                    <rect id="Rectangle-Copy-19" x="20" y="80" width="10" height="10"></rect>
                    <rect id="Rectangle-Copy" x="60" y="100" width="10" height="10"></rect>
                    <rect id="Rectangle-Copy-2" x="70" y="100" width="10" height="10"></rect>
                    <rect id="Rectangle-Copy-3" x="80" y="90" width="10" height="10"></rect>
                    <rect id="Rectangle-Copy-4" x="80" y="80" width="10" height="10"></rect>
                    <rect id="Rectangle-Copy-5" x="80" y="70" width="10" height="10"></rect>
                    <rect id="Rectangle-Copy-6" x="80" y="60" width="10" height="10"></rect>
                    <rect id="Rectangle-Copy-7" x="80" y="50" width="10" height="10"></rect>
                    <rect id="Rectangle-Copy-8" x="70" y="40" width="10" height="10"></rect>
                    <rect id="Rectangle-Copy-9" x="60" y="30" width="10" height="10"></rect>
                    <rect id="Rectangle-Copy-10" x="60" y="20" width="10" height="10"></rect>
                    <rect id="Rectangle-Copy-11" x="60" y="10" width="10" height="10"></rect>
                    <rect id="Rectangle-Copy-12" x="50" y="0" width="10" height="10"></rect>
                    <rect id="Rectangle-Copy-13" x="40" y="0" width="10" height="10"></rect>
                    <rect id="Rectangle-Copy-14" x="30" y="10" width="10" height="10"></rect>
                    <rect id="Rectangle-Copy-15" x="20" y="10" width="10" height="10"></rect>
                    <rect id="Rectangle-Copy-16" x="10" y="10" width="10" height="10"></rect>
                    <rect id="Rectangle-Copy-45" x="0" y="20" width="10" height="10"></rect>
                    <rect id="Rectangle-Copy-46" x="10" y="30" width="10" height="10"></rect>
                    <rect id="Rectangle-Copy-47" x="10" y="40" width="10" height="10"></rect>
                    <rect id="Rectangle-Copy-48" x="10" y="50" width="10" height="10"></rect>
                    <rect id="Rectangle-Copy-49" x="10" y="60" width="10" height="10"></rect>
                    <rect id="Rectangle-Copy-50" x="10" y="70" width="10" height="10"></rect>
                    <rect id="Rectangle-Copy-51" x="10" y="80" width="10" height="10"></rect>
                </g>
                <g id="Inside" transform="translate(10.000000, 10.000000)" fill="#FFFFFF">
                    <rect id="Rectangle-Copy-116" x="0" y="10" width="10" height="10"></rect>
                    <rect id="Rectangle-Copy-253" x="0" y="10" width="10" height="10"></rect>
                    <rect id="Rectangle-Copy-254" x="0" y="10" width="10" height="10"></rect>
                    <rect id="Rectangle-Copy-255" x="10" y="10" width="10" height="10"></rect>
                    <rect id="Rectangle-Copy-256" x="10" y="20" width="10" height="10"></rect>
                    <rect id="Rectangle-Copy-257" x="10" y="30" width="10" height="10"></rect>
                    <rect id="Rectangle-Copy-258" x="10" y="40" width="10" height="10"></rect>
                    <rect id="Rectangle-Copy-259" x="10" y="50" width="10" height="10"></rect>
                    <rect id="Rectangle-Copy-260" x="10" y="60" width="10" height="10"></rect>
                    <rect id="Rectangle-Copy-261" x="20" y="60" width="10" height="10"></rect>
                    <rect id="Rectangle-Copy-262" x="20" y="50" width="10" height="10"></rect>
                    <rect id="Rectangle-Copy-263" x="20" y="40" width="10" height="10"></rect>
                    <rect id="Rectangle-Copy-264" x="20" y="30" width="10" height="10"></rect>
                    <rect id="Rectangle-Copy-265" x="20" y="20" width="10" height="10"></rect>
                    <rect id="Rectangle-Copy-266" x="20" y="10" width="10" height="10"></rect>
                    <rect id="Rectangle-Copy-267" x="30" y="0" width="10" height="10"></rect>
                    <rect id="Rectangle-Copy-268" x="30" y="10" width="10" height="10"></rect>
                    <rect id="Rectangle-Copy-269" x="30" y="20" width="10" height="10"></rect>
                    <rect id="Rectangle-Copy-270" x="30" y="30" width="10" height="10"></rect>
                    <rect id="Rectangle-Copy-271" x="30" y="40" width="10" height="10"></rect>
                    <rect id="Rectangle-Copy-272" x="30" y="50" width="10" height="10"></rect>
                    <rect id="Rectangle-Copy-273" x="30" y="60" width="10" height="10"></rect>
                    <rect id="Rectangle-Copy-274" x="30" y="70" width="10" height="10"></rect>
                    <rect id="Rectangle-Copy-275" x="40" y="80" width="10" height="10"></rect>
                    <rect id="Rectangle-Copy-276" x="40" y="70" width="10" height="10"></rect>
                    <rect id="Rectangle-Copy-277" x="40" y="60" width="10" height="10"></rect>
                    <rect id="Rectangle-Copy-278" x="40" y="50" width="10" height="10"></rect>
                    <rect id="Rectangle-Copy-279" x="40" y="40" width="10" height="10"></rect>
                    <rect id="Rectangle-Copy-280" x="40" y="30" width="10" height="10"></rect>
                    <rect id="Rectangle-Copy-281" x="40" y="20" width="10" height="10"></rect>
                    <rect id="Rectangle-Copy-282" x="40" y="10" width="10" height="10"></rect>
                    <rect id="Rectangle-Copy-283" x="40" y="0" width="10" height="10"></rect>
                    <rect id="Rectangle-Copy-284" x="50" y="30" width="10" height="10"></rect>
                    <rect id="Rectangle-Copy-285" x="50" y="40" width="10" height="10"></rect>
                    <rect id="Rectangle-Copy-286" x="50" y="50" width="10" height="10"></rect>
                    <rect id="Rectangle-Copy-287" x="50" y="60" width="10" height="10"></rect>
                    <rect id="Rectangle-Copy-288" x="50" y="70" width="10" height="10"></rect>
                    <rect id="Rectangle-Copy-289" x="50" y="80" width="10" height="10"></rect>
                    <rect id="Rectangle-Copy-290" x="60" y="80" width="10" height="10"></rect>
                    <rect id="Rectangle-Copy-291" x="60" y="70" width="10" height="10"></rect>
                    <rect id="Rectangle-Copy-292" x="60" y="60" width="10" height="10"></rect>
                    <rect id="Rectangle-Copy-293" x="60" y="50" width="10" height="10"></rect>
                    <rect id="Rectangle-Copy-294" x="60" y="40" width="10" height="10"></rect>
                    <rect id="Rectangle-Copy-295" x="60" y="40" width="10" height="10"></rect>
                </g>
            </g>
            <g id="Leg---Right" transform="translate(70.000000, 390.000000)">
                <g id="Outline" fill="#000000">
                    <rect id="Rectangle-Copy-45" x="60" y="60" width="10" height="10"></rect>
                    <rect id="Rectangle-Copy-52" x="50" y="60" width="10" height="10"></rect>
                    <rect id="Rectangle-Copy-53" x="50" y="50" width="10" height="10"></rect>
                    <rect id="Rectangle-Copy-54" x="50" y="40" width="10" height="10"></rect>
                    <rect id="Rectangle-Copy-55" x="50" y="30" width="10" height="10"></rect>
                    <rect id="Rectangle-Copy-56" x="60" y="20" width="10" height="10"></rect>
                    <rect id="Rectangle-Copy-57" x="60" y="10" width="10" height="10"></rect>
                    <rect id="Rectangle-Copy-58" x="50" y="10" width="10" height="10"></rect>
                    <rect id="Rectangle-Copy-59" x="60" y="0" width="10" height="10"></rect>
                    <rect id="Rectangle-Copy-60" x="50" y="0" width="10" height="10"></rect>
                    <rect id="Rectangle-Copy-61" x="40" y="0" width="10" height="10"></rect>
                    <rect id="Rectangle-Copy-62" x="30" y="0" width="10" height="10"></rect>
                    <rect id="Rectangle-Copy-63" x="20" y="0" width="10" height="10"></rect>
                    <rect id="Rectangle-Copy-64" x="10" y="0" width="10" height="10"></rect>
                    <rect id="Rectangle-Copy-65" x="0" y="0" width="10" height="10"></rect>
                    <rect id="Rectangle-Copy-66" x="0" y="10" width="10" height="10"></rect>
                    <rect id="Rectangle-Copy-67" x="0" y="20" width="10" height="10"></rect>
                    <rect id="Rectangle-Copy-68" x="0" y="30" width="10" height="10"></rect>
                    <rect id="Rectangle-Copy-69" x="0" y="40" width="10" height="10"></rect>
                    <rect id="Rectangle-Copy-70" x="0" y="50" width="10" height="10"></rect>
                    <rect id="Rectangle-Copy-71" x="0" y="60" width="10" height="10"></rect>
                    <rect id="Rectangle-Copy-72" x="0" y="70" width="10" height="10"></rect>
                    <rect id="Rectangle-Copy-73" x="0" y="80" width="10" height="10"></rect>
                    <rect id="Rectangle-Copy-74" x="10" y="90" width="10" height="10"></rect>
                    <rect id="Rectangle-Copy-75" x="10" y="100" width="10" height="10"></rect>
                    <rect id="Rectangle-Copy-76" x="10" y="110" width="10" height="10"></rect>
                    <rect id="Rectangle-Copy-77" x="20" y="120" width="10" height="10"></rect>
                    <rect id="Rectangle-Copy-78" x="30" y="130" width="10" height="10"></rect>
                    <rect id="Rectangle-Copy-79" x="40" y="130" width="10" height="10"></rect>
                    <rect id="Rectangle-Copy-80" x="50" y="130" width="10" height="10"></rect>
                    <rect id="Rectangle-Copy-81" x="60" y="130" width="10" height="10"></rect>
                    <rect id="Rectangle-Copy-82" x="70" y="130" width="10" height="10"></rect>
                </g>
                <path d="M50,10 L50,20 L60,20 L60,30 L50,30 L50,70 L70,70 L70,80 L80,80 L80,130 L30,130 L30,120 L20,120 L20,90 L10,90 L10,10 L50,10 Z" id="Combined-Shape" fill="#654A35"></path>
            </g>
            <g id="Foot---Left" transform="translate(270.000000, 380.000000)">
                <g id="Outline" fill="#000000">
                    <rect id="Rectangle-Copy-2" x="70" y="120" width="10" height="10"></rect>
                    <rect id="Rectangle-Copy-20" x="80" y="120" width="10" height="10"></rect>
                    <rect id="Rectangle-Copy-21" x="90" y="110" width="10" height="10"></rect>
                    <rect id="Rectangle-Copy-22" x="60" y="110" width="10" height="10"></rect>
                    <rect id="Rectangle-Copy-23" x="100" y="100" width="10" height="10"></rect>
                    <rect id="Rectangle-Copy-24" x="100" y="90" width="10" height="10"></rect>
                    <rect id="Rectangle-Copy-25" x="100" y="80" width="10" height="10"></rect>
                    <rect id="Rectangle-Copy-26" x="90" y="70" width="10" height="10"></rect>
                    <rect id="Rectangle-Copy-27" x="90" y="60" width="10" height="10"></rect>
                    <rect id="Rectangle-Copy-28" x="80" y="50" width="10" height="10"></rect>
                    <rect id="Rectangle-Copy-29" x="70" y="40" width="10" height="10"></rect>
                    <rect id="Rectangle-Copy-30" x="60" y="30" width="10" height="10"></rect>
                    <rect id="Rectangle-Copy-31" x="50" y="20" width="10" height="10"></rect>
                    <rect id="Rectangle-Copy-32" x="40" y="10" width="10" height="10"></rect>
                    <rect id="Rectangle-Copy-33" x="30" y="10" width="10" height="10"></rect>
                    <rect id="Rectangle-Copy-34" x="20" y="0" width="10" height="10"></rect>
                    <rect id="Rectangle-Copy-35" x="10" y="10" width="10" height="10"></rect>
                    <rect id="Rectangle-Copy-36" x="0" y="20" width="10" height="10"></rect>
                    <rect id="Rectangle-Copy-37" x="0" y="30" width="10" height="10"></rect>
                    <rect id="Rectangle-Copy-38" x="10" y="40" width="10" height="10"></rect>
                    <rect id="Rectangle-Copy-39" x="20" y="50" width="10" height="10"></rect>
                    <rect id="Rectangle-Copy-40" x="30" y="60" width="10" height="10"></rect>
                    <rect id="Rectangle-Copy-41" x="40" y="70" width="10" height="10"></rect>
                    <rect id="Rectangle-Copy-42" x="50" y="80" width="10" height="10"></rect>
                    <rect id="Rectangle-Copy-43" x="50" y="90" width="10" height="10"></rect>
                    <rect id="Rectangle-Copy-44" x="50" y="100" width="10" height="10"></rect>
                </g>
                <g id="Inside" transform="translate(10.000000, 10.000000)" fill="#FFFFFF">
                    <rect id="Rectangle-Copy-295" x="0" y="20" width="10" height="10"></rect>
                    <rect id="Rectangle-Copy-296" x="0" y="10" width="10" height="10"></rect>
                    <rect id="Rectangle-Copy-297" x="10" y="0" width="10" height="10"></rect>
                    <rect id="Rectangle-Copy-298" x="10" y="10" width="10" height="10"></rect>
                    <rect id="Rectangle-Copy-299" x="10" y="20" width="10" height="10"></rect>
                    <rect id="Rectangle-Copy-300" x="10" y="30" width="10" height="10"></rect>
                    <rect id="Rectangle-Copy-301" x="20" y="10" width="10" height="10"></rect>
                    <rect id="Rectangle-Copy-302" x="20" y="20" width="10" height="10"></rect>
                    <rect id="Rectangle-Copy-303" x="20" y="30" width="10" height="10"></rect>
                    <rect id="Rectangle-Copy-304" x="20" y="40" width="10" height="10"></rect>
                    <rect id="Rectangle-Copy-305" x="30" y="50" width="10" height="10"></rect>
                    <rect id="Rectangle-Copy-306" x="30" y="40" width="10" height="10"></rect>
                    <rect id="Rectangle-Copy-307" x="30" y="30" width="10" height="10"></rect>
                    <rect id="Rectangle-Copy-308" x="30" y="20" width="10" height="10"></rect>
                    <rect id="Rectangle-Copy-309" x="30" y="10" width="10" height="10"></rect>
                    <rect id="Rectangle-Copy-310" x="40" y="20" width="10" height="10"></rect>
                    <rect id="Rectangle-Copy-311" x="40" y="30" width="10" height="10"></rect>
                    <rect id="Rectangle-Copy-312" x="40" y="40" width="10" height="10"></rect>
                    <rect id="Rectangle-Copy-313" x="40" y="50" width="10" height="10"></rect>
                    <rect id="Rectangle-Copy-314" x="40" y="60" width="10" height="10"></rect>
                    <rect id="Rectangle-Copy-315" x="50" y="90" width="10" height="10"></rect>
                    <rect id="Rectangle-Copy-316" x="50" y="80" width="10" height="10"></rect>
                    <rect id="Rectangle-Copy-317" x="50" y="70" width="10" height="10"></rect>
                    <rect id="Rectangle-Copy-318" x="50" y="60" width="10" height="10"></rect>
                    <rect id="Rectangle-Copy-319" x="50" y="50" width="10" height="10"></rect>
                    <rect id="Rectangle-Copy-320" x="50" y="40" width="10" height="10"></rect>
                    <rect id="Rectangle-Copy-321" x="50" y="30" width="10" height="10"></rect>
                    <rect id="Rectangle-Copy-322" x="60" y="40" width="10" height="10"></rect>
                    <rect id="Rectangle-Copy-323" x="60" y="50" width="10" height="10"></rect>
                    <rect id="Rectangle-Copy-324" x="60" y="60" width="10" height="10"></rect>
                    <rect id="Rectangle-Copy-325" x="60" y="70" width="10" height="10"></rect>
                    <rect id="Rectangle-Copy-326" x="60" y="80" width="10" height="10"></rect>
                    <rect id="Rectangle-Copy-327" x="60" y="90" width="10" height="10"></rect>
                    <rect id="Rectangle-Copy-328" x="60" y="100" width="10" height="10"></rect>
                    <rect id="Rectangle-Copy-329" x="70" y="100" width="10" height="10"></rect>
                    <rect id="Rectangle-Copy-330" x="70" y="90" width="10" height="10"></rect>
                    <rect id="Rectangle-Copy-331" x="70" y="80" width="10" height="10"></rect>
                    <rect id="Rectangle-Copy-332" x="70" y="70" width="10" height="10"></rect>
                    <rect id="Rectangle-Copy-333" x="70" y="60" width="10" height="10"></rect>
                    <rect id="Rectangle-Copy-334" x="70" y="50" width="10" height="10"></rect>
                    <rect id="Rectangle-Copy-335" x="80" y="70" width="10" height="10"></rect>
                    <rect id="Rectangle-Copy-336" x="80" y="80" width="10" height="10"></rect>
                    <rect id="Rectangle-Copy-337" x="80" y="90" width="10" height="10"></rect>
                </g>
            </g>
            <g id="Leg---Left" transform="translate(130.000000, 250.000000)">
                <g id="Outline" fill="#000000">
                    <rect id="Rectangle-Copy-34" x="150" y="120" width="10" height="10"></rect>
                    <rect id="Rectangle-Copy-34" x="130" y="150" width="10" height="10"></rect>
                    <rect id="Rectangle-Copy-158" x="120" y="150" width="10" height="10"></rect>
                    <rect id="Rectangle-Copy-159" x="110" y="150" width="10" height="10"></rect>
                    <rect id="Rectangle-Copy-160" x="100" y="140" width="10" height="10"></rect>
                    <rect id="Rectangle-Copy-161" x="90" y="140" width="10" height="10"></rect>
                    <rect id="Rectangle-Copy-162" x="80" y="130" width="10" height="10"></rect>
                    <rect id="Rectangle-Copy-163" x="70" y="120" width="10" height="10"></rect>
                    <rect id="Rectangle-Copy-164" x="60" y="120" width="10" height="10"></rect>
                    <rect id="Rectangle-Copy-165" x="50" y="120" width="10" height="10"></rect>
                    <rect id="Rectangle-Copy-166" x="40" y="110" width="10" height="10"></rect>
                    <rect id="Rectangle-Copy-167" x="30" y="100" width="10" height="10"></rect>
                    <rect id="Rectangle-Copy-168" x="20" y="100" width="10" height="10"></rect>
                    <rect id="Rectangle-Copy-169" x="10" y="100" width="10" height="10"></rect>
                    <rect id="Rectangle-Copy-170" x="0" y="100" width="10" height="10"></rect>
                    <rect id="Rectangle-Copy-174" x="0" y="90" width="10" height="10"></rect>
                    <rect id="Rectangle-Copy-175" x="0" y="80" width="10" height="10"></rect>
                    <rect id="Rectangle-Copy-176" x="0" y="70" width="10" height="10"></rect>
                    <rect id="Rectangle-Copy-177" x="0" y="60" width="10" height="10"></rect>
                    <rect id="Rectangle-Copy-178" x="0" y="50" width="10" height="10"></rect>
                    <rect id="Rectangle-Copy-179" x="0" y="40" width="10" height="10"></rect>
                    <rect id="Rectangle-Copy-180" x="0" y="30" width="10" height="10"></rect>
                    <rect id="Rectangle-Copy-181" x="0" y="20" width="10" height="10"></rect>
                    <rect id="Rectangle-Copy-182" x="10" y="20" width="10" height="10"></rect>
                    <rect id="Rectangle-Copy-183" x="20" y="30" width="10" height="10"></rect>
                    <rect id="Rectangle-Copy-184" x="30" y="20" width="10" height="10"></rect>
                    <rect id="Rectangle-Copy-185" x="30" y="10" width="10" height="10"></rect>
                    <rect id="Rectangle-Copy-186" x="30" y="0" width="10" height="10"></rect>
                    <rect id="Rectangle-Copy-171" x="0" y="110" width="10" height="10"></rect>
                    <rect id="Rectangle-Copy-172" x="0" y="120" width="10" height="10"></rect>
                    <rect id="Rectangle-Copy-173" x="0" y="130" width="10" height="10"></rect>
                    <rect id="Rectangle-Copy-143" x="140" y="110" width="10" height="10"></rect>
                    <rect id="Rectangle-Copy-144" x="130" y="100" width="10" height="10"></rect>
                    <rect id="Rectangle-Copy-145" x="120" y="90" width="10" height="10"></rect>
                    <rect id="Rectangle-Copy-146" x="110" y="90" width="10" height="10"></rect>
                    <rect id="Rectangle-Copy-147" x="100" y="80" width="10" height="10"></rect>
                    <rect id="Rectangle-Copy-148" x="90" y="80" width="10" height="10"></rect>
                    <rect id="Rectangle-Copy-149" x="80" y="80" width="10" height="10"></rect>
                    <rect id="Rectangle-Copy-150" x="70" y="70" width="10" height="10"></rect>
                    <rect id="Rectangle-Copy-151" x="60" y="70" width="10" height="10"></rect>
                    <rect id="Rectangle-Copy-152" x="50" y="70" width="10" height="10"></rect>
                    <rect id="Rectangle-Copy-153" x="40" y="70" width="10" height="10"></rect>
                    <rect id="Rectangle-Copy-154" x="40" y="60" width="10" height="10"></rect>
                    <rect id="Rectangle-Copy-155" x="40" y="50" width="10" height="10"></rect>
                    <rect id="Rectangle-Copy-156" x="40" y="40" width="10" height="10"></rect>
                    <rect id="Rectangle-Copy-157" x="40" y="30" width="10" height="10"></rect>
                </g>
                <path d="M150,150 L110,150 L110,140 L90,140 L90,130 L80,130 L80,120 L50,120 L50,110 L40,110 L40,100 L10,100 L10,30 L20,30 L20,50 L30,50 L30,30 L40,30 L40,80 L80,80 L80,90 L110,90 L110,100 L130,100 L130,110 L140,110 L140,120 L150,120 L150,130 L160,130 L160,140 L150,140 L150,150 Z" id="Combined-Shape" fill="#654A35"></path>
                <rect id="Rectangle-Copy-195" fill="#654A35" x="20" y="40" width="10" height="10"></rect>
            </g>
            <g id="Jersey" transform="translate(20.000000, 80.000000)">
                <g id="Outline" fill="#000000">
                    <rect id="Rectangle-Copy-65" x="50" y="300" width="10" height="10"></rect>
                    <rect id="Rectangle-Copy-338" x="40" y="290" width="10" height="10"></rect>
                    <rect id="Rectangle-Copy-339" x="40" y="280" width="10" height="10"></rect>
                    <rect id="Rectangle-Copy-340" x="40" y="270" width="10" height="10"></rect>
                    <rect id="Rectangle-Copy-341" x="40" y="260" width="10" height="10"></rect>
                    <rect id="Rectangle-Copy-342" x="40" y="250" width="10" height="10"></rect>
                    <rect id="Rectangle-Copy-343" x="30" y="240" width="10" height="10"></rect>
                    <rect id="Rectangle-Copy-360" x="30" y="250" width="10" height="10"></rect>
                    <rect id="Rectangle-Copy-344" x="30" y="230" width="10" height="10"></rect>
                    <rect id="Rectangle-Copy-345" x="30" y="220" width="10" height="10"></rect>
                    <rect id="Rectangle-Copy-346" x="30" y="210" width="10" height="10"></rect>
                    <rect id="Rectangle-Copy-347" x="30" y="200" width="10" height="10"></rect>
                    <rect id="Rectangle-Copy-348" x="20" y="190" width="10" height="10"></rect>
                    <rect id="Rectangle-Copy-349" x="20" y="180" width="10" height="10"></rect>
                    <rect id="Rectangle-Copy-350" x="20" y="170" width="10" height="10"></rect>
                    <rect id="Rectangle-Copy-351" x="20" y="160" width="10" height="10"></rect>
                    <rect id="Rectangle-Copy-352" x="10" y="150" width="10" height="10"></rect>
                    <rect id="Rectangle-Copy-353" x="10" y="140" width="10" height="10"></rect>
                    <rect id="Rectangle-Copy-186" x="130" y="160" width="10" height="10"></rect>
                    <rect id="Rectangle-Copy-361" x="120" y="150" width="10" height="10"></rect>
                    <rect id="Rectangle-Copy-362" x="110" y="140" width="10" height="10"></rect>
                    <rect id="Rectangle-Copy-363" x="110" y="130" width="10" height="10"></rect>
                    <rect id="Rectangle-Copy-364" x="110" y="120" width="10" height="10"></rect>
                    <rect id="Rectangle-Copy-365" x="100" y="110" width="10" height="10"></rect>
                    <rect id="Rectangle-Copy-366" x="110" y="100" width="10" height="10"></rect>
                    <rect id="Rectangle-Copy-367" x="110" y="90" width="10" height="10"></rect>
                    <rect id="Rectangle-Copy-368" x="110" y="80" width="10" height="10"></rect>
                    <rect id="Rectangle-Copy-369" x="100" y="70" width="10" height="10"></rect>
                    <rect id="Rectangle-Copy-370" x="90" y="60" width="10" height="10"></rect>
                    <rect id="Rectangle-Copy-371" x="80" y="50" width="10" height="10"></rect>
                    <rect id="Rectangle-Copy-372" x="80" y="40" width="10" height="10"></rect>
                    <rect id="Rectangle-Copy-373" x="80" y="30" width="10" height="10"></rect>
                    <rect id="Rectangle-Copy-374" x="80" y="20" width="10" height="10"></rect>
                    <rect id="Rectangle-Copy-375" x="80" y="10" width="10" height="10"></rect>
                    <rect id="Rectangle-Copy-376" x="80" y="0" width="10" height="10"></rect>
                    <rect id="Rectangle-Copy-377" x="70" y="0" width="10" height="10"></rect>
                    <rect id="Rectangle-Copy-354" x="10" y="130" width="10" height="10"></rect>
                    <rect id="Rectangle-Copy-355" x="10" y="120" width="10" height="10"></rect>
                    <rect id="Rectangle-Copy-356" x="10" y="110" width="10" height="10"></rect>
                    <rect id="Rectangle-Copy-357" x="10" y="100" width="10" height="10"></rect>
                    <rect id="Rectangle-Copy-358" x="10" y="90" width="10" height="10"></rect>
                    <rect id="Rectangle-Copy-359" x="0" y="80" width="10" height="10"></rect>
                    <rect id="Rectangle-Copy-774" x="10" y="80" width="10" height="10"></rect>
                </g>
                <g id="Inside" transform="translate(10.000000, 0.000000)">
                    <g id="Solid" fill="#E03A3E">
                        <path d="M90,180 L90,270 L100,270 L100,290 L90,290 L90,280 L40,280 L40,250 L30,250 L30,200 L60,200 L60,190 L80,190 L80,170 L60,170 L60,180 L20,180 L20,160 L10,160 L10,80 L0,80 L0,20 L10,20 L10,10 L30,10 L30,20 L40,20 L40,10 L50,10 L50,0 L60,0 L60,70 L90,70 L90,80 L100,80 L100,110 L90,110 L90,120 L100,120 L100,150 L110,150 L110,160 L120,160 L120,170 L130,170 L130,180 L90,180 Z" id="Combined-Shape"></path>
                    </g>
                    <g id="Lines" transform="translate(20.000000, 0.000000)" fill="#FFFFFF">
                        <rect id="Rectangle-Copy-783" x="10" y="10" width="10" height="10"></rect>
                        <rect id="Rectangle-Copy-828" x="20" y="0" width="10" height="10"></rect>
                        <rect id="Rectangle-Copy-829" x="40" y="10" width="10" height="10"></rect>
                        <rect id="Rectangle-Copy-830" x="40" y="20" width="10" height="10"></rect>
                        <rect id="Rectangle-Copy-831" x="40" y="30" width="10" height="10"></rect>
                        <rect id="Rectangle-Copy-832" x="40" y="40" width="10" height="10"></rect>
                        <rect id="Rectangle-Copy-833" x="40" y="50" width="10" height="10"></rect>
                        <rect id="Rectangle-Copy-834" x="40" y="60" width="10" height="10"></rect>
                        <rect id="Rectangle-Copy-835" x="50" y="60" width="10" height="10"></rect>
                        <rect id="Rectangle-Copy-820" x="0" y="10" width="10" height="10"></rect>
                        <rect id="Rectangle-Copy-546" x="10" y="180" width="10" height="10"></rect>
                        <rect id="Rectangle-Copy-547" x="10" y="190" width="10" height="10"></rect>
                        <rect id="Rectangle-Copy-826" x="0" y="190" width="10" height="10"></rect>
                        <rect id="Rectangle-Copy-827" x="0" y="180" width="10" height="10"></rect>
                        <rect id="Rectangle-Copy-548" x="20" y="190" width="10" height="10"></rect>
                        <rect id="Rectangle-Copy-549" x="20" y="180" width="10" height="10"></rect>
                        <rect id="Rectangle-Copy-550" x="30" y="180" width="10" height="10"></rect>
                        <rect id="Rectangle-Copy-551" x="30" y="190" width="10" height="10"></rect>
                        <rect id="Rectangle-Copy-552" x="40" y="180" width="10" height="10"></rect>
                        <rect id="Rectangle-Copy-553" x="50" y="180" width="10" height="10"></rect>
                        <rect id="Rectangle-Copy-554" x="50" y="170" width="10" height="10"></rect>
                        <rect id="Rectangle-Copy-555" x="40" y="170" width="10" height="10"></rect>
                        <rect id="Rectangle-Copy-557" x="60" y="170" width="10" height="10"></rect>
                        <rect id="Rectangle-Copy-558" x="70" y="180" width="10" height="10"></rect>
                        <rect id="Rectangle-Copy-559" x="80" y="180" width="10" height="10"></rect>
                        <rect id="Rectangle-Copy-560" x="90" y="180" width="10" height="10"></rect>
                        <rect id="Rectangle-Copy-561" x="100" y="180" width="10" height="10"></rect>
                        <rect id="Rectangle-Copy-562" x="100" y="190" width="10" height="10"></rect>
                        <rect id="Rectangle-Copy-563" x="70" y="190" width="10" height="10"></rect>
                        <rect id="Rectangle-Copy-564" x="70" y="200" width="10" height="10"></rect>
                        <rect id="Rectangle-Copy-565" x="70" y="210" width="10" height="10"></rect>
                        <rect id="Rectangle-Copy-566" x="70" y="220" width="10" height="10"></rect>
                        <rect id="Rectangle-Copy-567" x="70" y="230" width="10" height="10"></rect>
                        <rect id="Rectangle-Copy-568" x="70" y="240" width="10" height="10"></rect>
                        <rect id="Rectangle-Copy-569" x="70" y="250" width="10" height="10"></rect>
                        <rect id="Rectangle-Copy-570" x="70" y="260" width="10" height="10"></rect>
                        <rect id="Rectangle-Copy-571" x="70" y="290" width="10" height="10"></rect>
                        <rect id="Rectangle-Copy-572" x="70" y="300" width="10" height="10"></rect>
                        <rect id="Rectangle-Copy-573" x="60" y="300" width="10" height="10"></rect>
                        <rect id="Rectangle-Copy-574" x="60" y="290" width="10" height="10"></rect>
                        <rect id="Rectangle-Copy-575" x="60" y="280" width="10" height="10"></rect>
                        <rect id="Rectangle-Copy-576" x="50" y="280" width="10" height="10"></rect>
                        <rect id="Rectangle-Copy-577" x="50" y="290" width="10" height="10"></rect>
                        <rect id="Rectangle-Copy-578" x="50" y="300" width="10" height="10"></rect>
                        <rect id="Rectangle-Copy-579" x="40" y="300" width="10" height="10"></rect>
                        <rect id="Rectangle-Copy-580" x="40" y="290" width="10" height="10"></rect>
                        <rect id="Rectangle-Copy-581" x="40" y="280" width="10" height="10"></rect>
                        <rect id="Rectangle-Copy-582" x="30" y="280" width="10" height="10"></rect>
                        <rect id="Rectangle-Copy-583" x="30" y="290" width="10" height="10"></rect>
                        <rect id="Rectangle-Copy-584" x="30" y="300" width="10" height="10"></rect>
                        <rect id="Rectangle-Copy-585" x="20" y="290" width="10" height="10"></rect>
                        <rect id="Rectangle-Copy-586" x="20" y="280" width="10" height="10"></rect>
                    </g>
                </g>
            </g>
            <g id="Arm---Left" transform="translate(110.000000, 90.000000)">
                <g id="Outline" fill="#000000">
                    <rect id="Rectangle-Copy-376" x="0" y="0" width="10" height="10"></rect>
                    <rect id="Rectangle-Copy-382" x="10" y="0" width="10" height="10"></rect>
                    <rect id="Rectangle-Copy-587" x="20" y="0" width="10" height="10"></rect>
                    <rect id="Rectangle-Copy-588" x="30" y="10" width="10" height="10"></rect>
                    <rect id="Rectangle-Copy-589" x="40" y="20" width="10" height="10"></rect>
                    <rect id="Rectangle-Copy-590" x="50" y="30" width="10" height="10"></rect>
                    <rect id="Rectangle-Copy-591" x="60" y="40" width="10" height="10"></rect>
                    <rect id="Rectangle-Copy-592" x="60" y="50" width="10" height="10"></rect>
                    <rect id="Rectangle-Copy-593" x="70" y="60" width="10" height="10"></rect>
                    <rect id="Rectangle-Copy-594" x="80" y="70" width="10" height="10"></rect>
                    <rect id="Rectangle-Copy-595" x="90" y="70" width="10" height="10"></rect>
                    <rect id="Rectangle-Copy-596" x="100" y="80" width="10" height="10"></rect>
                    <rect id="Rectangle-Copy-597" x="100" y="90" width="10" height="10"></rect>
                    <rect id="Rectangle-Copy-598" x="110" y="100" width="10" height="10"></rect>
                    <rect id="Rectangle-Copy-599" x="120" y="110" width="10" height="10"></rect>
                    <rect id="Rectangle-Copy-600" x="120" y="120" width="10" height="10"></rect>
                    <rect id="Rectangle-Copy-601" x="130" y="130" width="10" height="10"></rect>
                    <rect id="Rectangle-Copy-602" x="130" y="140" width="10" height="10"></rect>
                    <rect id="Rectangle-Copy-603" x="140" y="140" width="10" height="10"></rect>
                    <rect id="Rectangle-Copy-604" x="150" y="140" width="11" height="10"></rect>
                    <rect id="Rectangle-Copy-605" x="150" y="140" width="11" height="10"></rect>
                    <rect id="Rectangle-Copy-606" x="160" y="150" width="10" height="10"></rect>
                    <rect id="Rectangle-Copy-607" x="170" y="160" width="10" height="10"></rect>
                    <rect id="Rectangle-Copy-608" x="160" y="170" width="10" height="10"></rect>
                    <rect id="Rectangle-Copy-609" x="150" y="170" width="10" height="10"></rect>
                    <rect id="Rectangle-Copy-610" x="140" y="180" width="10" height="10"></rect>
                    <rect id="Rectangle-Copy-611" x="130" y="170" width="10" height="10"></rect>
                    <rect id="Rectangle-Copy-612" x="120" y="170" width="10" height="10"></rect>
                    <rect id="Rectangle-Copy-613" x="110" y="170" width="10" height="10"></rect>
                    <rect id="Rectangle-Copy-614" x="100" y="160" width="10" height="10"></rect>
                    <rect id="Rectangle-Copy-615" x="100" y="150" width="10" height="10"></rect>
                    <rect id="Rectangle-Copy-616" x="100" y="140" width="10" height="10"></rect>
                    <rect id="Rectangle-Copy-617" x="90" y="130" width="10" height="10"></rect>
                    <rect id="Rectangle-Copy-618" x="80" y="120" width="10" height="10"></rect>
                    <rect id="Rectangle-Copy-619" x="70" y="110" width="10" height="10"></rect>
                    <rect id="Rectangle-Copy-620" x="60" y="100" width="10" height="10"></rect>
                    <rect id="Rectangle-Copy-621" x="60" y="90" width="10" height="10"></rect>
                    <rect id="Rectangle-Copy-622" x="50" y="90" width="10" height="10"></rect>
                    <rect id="Rectangle-Copy-623" x="40" y="80" width="10" height="10"></rect>
                    <rect id="Rectangle-Copy-624" x="30" y="80" width="10" height="10"></rect>
                </g>
                <g id="Band" transform="translate(70.000000, 80.000000)" fill="#E03A3E">
                    <path d="M40,50 L20,50 L20,40 L10,40 L10,30 L0,30 L0,20 L10,20 L10,10 L20,10 L20,0 L30,0 L30,20 L40,20 L40,30 L50,30 L50,40 L40,40 L40,50 Z" id="Combined-Shape"></path>
                </g>
                <g id="Inside" transform="translate(0.000000, 10.000000)" fill="#654A35">
                    <path d="M120,110 L120,120 L130,120 L130,140 L160,140 L160,150 L170,150 L170,160 L150,160 L150,170 L140,170 L140,160 L110,160 L110,130 L100,130 L100,120 L110,120 L110,110 L120,110 Z M0,0 L30,0 L30,10 L40,10 L40,20 L50,20 L50,30 L60,30 L60,50 L70,50 L70,60 L80,60 L80,70 L90,70 L90,80 L80,80 L80,90 L70,90 L70,80 L50,80 L50,70 L30,70 L30,60 L20,60 L20,50 L10,50 L10,40 L0,40 L0,0 Z" id="Combined-Shape"></path>
                </g>
            </g>
            <g id="Head">
                <g id="Outline" fill="#000000">
                    <rect id="Rectangle-Copy-377" x="80" y="70" width="10" height="10"></rect>
                    <rect id="Rectangle-Copy-692" x="80" y="60" width="10" height="10"></rect>
                    <rect id="Rectangle-Copy-693" x="90" y="50" width="10" height="10"></rect>
                    <rect id="Rectangle-Copy-694" x="90" y="40" width="10" height="10"></rect>
                    <rect id="Rectangle-Copy-695" x="90" y="30" width="10" height="10"></rect>
                    <rect id="Rectangle-Copy-696" x="80" y="20" width="10" height="10"></rect>
                    <rect id="Rectangle-Copy-697" x="70" y="10" width="10" height="10"></rect>
                    <rect id="Rectangle-Copy-712" x="60" y="10" width="10" height="10"></rect>
                    <rect id="Rectangle-Copy-713" x="50" y="10" width="10" height="10"></rect>
                    <rect id="Rectangle-Copy-714" x="50" y="20" width="10" height="10"></rect>
                    <rect id="Rectangle-Copy-715" x="60" y="20" width="10" height="10"></rect>
                    <rect id="Rectangle-Copy-716" x="70" y="20" width="10" height="10"></rect>
                    <rect id="Rectangle-Copy-717" x="80" y="30" width="10" height="10"></rect>
                    <rect id="Rectangle-Copy-718" x="70" y="30" width="10" height="10"></rect>
                    <rect id="Rectangle-Copy-719" x="60" y="30" width="10" height="10"></rect>
                    <rect id="Rectangle-Copy-698" x="60" y="0" width="10" height="10"></rect>
                    <rect id="Rectangle-Copy-699" x="50" y="0" width="10" height="10"></rect>
                    <rect id="Rectangle-Copy-700" x="40" y="0" width="10" height="10"></rect>
                    <rect id="Rectangle-Copy-701" x="30" y="0" width="10" height="10"></rect>
                    <rect id="Rectangle-Copy-702" x="20" y="0" width="10" height="10"></rect>
                    <rect id="Rectangle-Copy-703" x="10" y="10" width="10" height="10"></rect>
                    <rect id="Rectangle-Copy-704" x="10" y="20" width="10" height="10"></rect>
                    <rect id="Rectangle-Copy-705" x="10" y="30" width="10" height="10"></rect>
                    <rect id="Rectangle-Copy-706" x="10" y="40" width="10" height="10"></rect>
                    <rect id="Rectangle-Copy-707" x="10" y="50" width="10" height="10"></rect>
                    <rect id="Rectangle-Copy-708" x="10" y="60" width="10" height="10"></rect>
                    <rect id="Rectangle-Copy-709" x="10" y="70" width="10" height="10"></rect>
                    <rect id="Rectangle-Copy-720" x="20" y="80" width="10" height="10"></rect>
                    <rect id="Rectangle-Copy-721" x="30" y="80" width="10" height="10"></rect>
                    <rect id="Rectangle-Copy-722" x="20" y="90" width="10" height="10"></rect>
                    <rect id="Rectangle-Copy-763" x="10" y="100" width="10" height="10"></rect>
                    <rect id="Rectangle-Copy-764" x="10" y="110" width="10" height="10"></rect>
                    <rect id="Rectangle-Copy-765" x="0" y="120" width="10" height="10"></rect>
                    <rect id="Rectangle-Copy-766" x="0" y="130" width="10" height="10"></rect>
                    <rect id="Rectangle-Copy-767" x="0" y="140" width="10" height="10"></rect>
                    <rect id="Rectangle-Copy-768" x="10" y="150" width="10" height="10"></rect>
                    <rect id="Rectangle-Copy-769" x="20" y="150" width="10" height="10"></rect>
                    <rect id="Rectangle-Copy-770" x="20" y="140" width="10" height="10"></rect>
                    <rect id="Rectangle-Copy-771" x="20" y="130" width="10" height="10"></rect>
                    <rect id="Rectangle-Copy-776" x="20" y="120" width="10" height="10"></rect>
                    <rect id="Rectangle-Copy-710" x="20" y="30" width="10" height="10"></rect>
                    <rect id="Rectangle-Copy-711" x="30" y="30" width="10" height="10"></rect>
                </g>
                <g id="Inside" transform="translate(10.000000, 10.000000)">
                    <path d="M40,20 L50,20 L50,30 L80,30 L80,50 L70,50 L70,70 L60,70 L60,80 L30,80 L30,70 L10,70 L10,60 L20,60 L20,50 L10,50 L10,30 L30,30 L30,20 L10,20 L10,0 L40,0 L40,20 Z" id="Combined-Shape" fill="#654A35"></path>
                    <path d="M0,110 L10,110 L10,140 L0,140 L0,110 Z M20,90 L20,110 L10,110 L10,90 L20,90 Z M30,80 L30,90 L20,90 L20,80 L30,80 Z" id="Combined-Shape" fill="#654A35"></path>
                    <rect id="Rectangle-Copy-744" fill="#FDB59F" x="10" y="50" width="10" height="10"></rect>
                </g>
            </g>
        </g>
    </g>
</svg>