<?xml version="1.0" encoding="UTF-8"?>
<svg width="210px" height="210px" viewBox="0 0 210 210" version="1.1" xmlns="http://www.w3.org/2000/svg" xmlns:xlink="http://www.w3.org/1999/xlink">
    <title>8bitballer-ball</title>
    <g id="8bitballer-ball" stroke="none" stroke-width="1" fill="none" fill-rule="evenodd">
        <g id="Ball" transform="translate(20.000000, 20.000000)">
            <rect id="Rectangle-Copy-3" fill="#000000" x="80" y="0" width="10" height="10"></rect>
            <rect id="Rectangle-Copy-4" fill="#000000" x="80" y="10" width="10" height="10"></rect>
            <rect id="Rectangle-Copy-5" fill="#000000" x="80" y="20" width="10" height="10"></rect>
            <rect id="Rectangle-Copy-6" fill="#000000" x="80" y="30" width="10" height="10"></rect>
            <rect id="Rectangle-Copy-7" fill="#000000" x="80" y="40" width="10" height="10"></rect>
            <rect id="Rectangle-Copy-8" fill="#000000" x="80" y="50" width="10" height="10"></rect>
            <rect id="Rectangle-Copy-9" fill="#000000" x="80" y="60" width="10" height="10"></rect>
            <rect id="Rectangle-Copy-19" fill="#000000" x="80" y="70" width="10" height="10"></rect>
            <rect id="Rectangle-Copy-18" fill="#000000" x="80" y="80" width="10" height="10"></rect>
            <rect id="Rectangle-Copy-113" fill="#000000" x="70" y="80" width="10" height="10"></rect>
            <rect id="Rectangle-Copy-114" fill="#000000" x="60" y="80" width="10" height="10"></rect>
            <rect id="Rectangle-Copy-115" fill="#000000" x="50" y="80" width="10" height="10"></rect>
            <rect id="Rectangle-Copy-116" fill="#000000" x="40" y="80" width="10" height="10"></rect>
            <rect id="Rectangle-Copy-133" fill="#000000" x="40" y="90" width="10" height="10"></rect>
            <rect id="Rectangle-Copy-149" fill="#000000" x="40" y="100" width="10" height="10"></rect>
            <rect id="Rectangle-Copy-161" fill="#000000" x="40" y="110" width="10" height="10"></rect>
            <rect id="Rectangle-Copy-226" fill="#000000" x="30" y="120" width="10" height="10"></rect>
            <rect id="Rectangle-Copy-227" fill="#000000" x="20" y="130" width="10" height="10"></rect>
            <rect id="Rectangle-Copy-117" fill="#000000" x="30" y="80" width="10" height="10"></rect>
            <rect id="Rectangle-Copy-118" fill="#000000" x="20" y="80" width="10" height="10"></rect>
            <rect id="Rectangle-Copy-119" fill="#000000" x="10" y="80" width="10" height="10"></rect>
            <rect id="Rectangle-Copy-120" fill="#000000" x="0" y="80" width="10" height="10"></rect>
            <rect id="Rectangle-Copy-121" fill="#000000" x="90" y="80" width="10" height="10"></rect>
            <rect id="Rectangle-Copy-122" fill="#000000" x="100" y="80" width="10" height="10"></rect>
            <rect id="Rectangle-Copy-123" fill="#000000" x="110" y="80" width="10" height="10"></rect>
            <rect id="Rectangle-Copy-124" fill="#000000" x="120" y="80" width="10" height="10"></rect>
            <rect id="Rectangle-Copy-125" fill="#000000" x="130" y="80" width="10" height="10"></rect>
            <rect id="Rectangle-Copy-126" fill="#000000" x="140" y="80" width="10" height="10"></rect>
            <rect id="Rectangle-Copy-127" fill="#000000" x="150" y="80" width="10" height="10"></rect>
            <rect id="Rectangle-Copy-128" fill="#000000" x="160" y="80" width="10" height="10"></rect>
            <rect id="Rectangle-Copy-17" fill="#000000" x="80" y="90" width="10" height="10"></rect>
            <rect id="Rectangle-Copy-16" fill="#000000" x="80" y="100" width="10" height="10"></rect>
            <rect id="Rectangle-Copy-15" fill="#000000" x="80" y="110" width="10" height="10"></rect>
            <rect id="Rectangle-Copy-14" fill="#000000" x="80" y="120" width="10" height="10"></rect>
            <rect id="Rectangle-Copy-13" fill="#000000" x="80" y="130" width="10" height="10"></rect>
            <rect id="Rectangle-Copy-12" fill="#000000" x="80" y="140" width="10" height="10"></rect>
            <rect id="Rectangle-Copy-11" fill="#000000" x="80" y="150" width="10" height="10"></rect>
            <rect id="Rectangle-Copy-10" fill="#000000" x="80" y="160" width="10" height="10"></rect>
            <rect id="Rectangle-Copy-10" fill="#FF931C" x="60" y="160" width="10" height="10"></rect>
            <rect id="Rectangle-Copy-20" fill="#FF931C" x="70" y="160" width="10" height="10"></rect>
            <rect id="Rectangle-Copy-21" fill="#FF931C" x="90" y="160" width="10" height="10"></rect>
            <rect id="Rectangle-Copy-22" fill="#FF931C" x="100" y="160" width="10" height="10"></rect>
            <rect id="Rectangle-Copy-23" fill="#FF931C" x="100" y="150" width="10" height="10"></rect>
            <rect id="Rectangle-Copy-24" fill="#FF931C" x="90" y="150" width="10" height="10"></rect>
            <rect id="Rectangle-Copy-25" fill="#FF931C" x="70" y="150" width="10" height="10"></rect>
            <rect id="Rectangle-Copy-26" fill="#FF931C" x="60" y="150" width="10" height="10"></rect>
            <rect id="Rectangle-Copy-27" fill="#FF931C" x="40" y="150" width="10" height="10"></rect>
            <rect id="Rectangle-Copy-28" fill="#FF931C" x="50" y="150" width="10" height="10"></rect>
            <rect id="Rectangle-Copy-29" fill="#FF931C" x="110" y="150" width="10" height="10"></rect>
            <rect id="Rectangle-Copy-30" fill="#FF931C" x="120" y="150" width="10" height="10"></rect>
            <rect id="Rectangle-Copy-31" fill="#FF931C" x="130" y="140" width="10" height="10"></rect>
            <rect id="Rectangle-Copy-32" fill="#FF931C" x="120" y="140" width="10" height="10"></rect>
            <rect id="Rectangle-Copy-33" fill="#FF931C" x="110" y="140" width="10" height="10"></rect>
            <rect id="Rectangle-Copy-34" fill="#FF931C" x="100" y="140" width="10" height="10"></rect>
            <rect id="Rectangle-Copy-35" fill="#FF931C" x="90" y="140" width="10" height="10"></rect>
            <rect id="Rectangle-Copy-36" fill="#FF931C" x="70" y="140" width="10" height="10"></rect>
            <rect id="Rectangle-Copy-37" fill="#FF931C" x="60" y="140" width="10" height="10"></rect>
            <rect id="Rectangle-Copy-38" fill="#FF931C" x="50" y="140" width="10" height="10"></rect>
            <rect id="Rectangle-Copy-39" fill="#FF931C" x="40" y="140" width="10" height="10"></rect>
            <rect id="Rectangle-Copy-40" fill="#FF931C" x="30" y="140" width="10" height="10"></rect>
            <rect id="Rectangle-Copy-50" fill="#FF931C" x="130" y="130" width="10" height="10"></rect>
            <rect id="Rectangle-Copy-66" fill="#000000" x="140" y="130" width="10" height="10"></rect>
            <rect id="Rectangle-Copy-49" fill="#FF931C" x="120" y="130" width="10" height="10"></rect>
            <rect id="Rectangle-Copy-48" fill="#FF931C" x="110" y="130" width="10" height="10"></rect>
            <rect id="Rectangle-Copy-47" fill="#FF931C" x="100" y="130" width="10" height="10"></rect>
            <rect id="Rectangle-Copy-46" fill="#FF931C" x="90" y="130" width="10" height="10"></rect>
            <rect id="Rectangle-Copy-45" fill="#FF931C" x="70" y="130" width="10" height="10"></rect>
            <rect id="Rectangle-Copy-44" fill="#FF931C" x="60" y="130" width="10" height="10"></rect>
            <rect id="Rectangle-Copy-43" fill="#FF931C" x="50" y="130" width="10" height="10"></rect>
            <rect id="Rectangle-Copy-42" fill="#FF931C" x="40" y="130" width="10" height="10"></rect>
            <rect id="Rectangle-Copy-41" fill="#FF931C" x="30" y="130" width="10" height="10"></rect>
            <rect id="Rectangle-Copy-55" fill="#FF931C" x="70" y="120" width="10" height="10"></rect>
            <rect id="Rectangle-Copy-54" fill="#FF931C" x="60" y="120" width="10" height="10"></rect>
            <rect id="Rectangle-Copy-53" fill="#FF931C" x="50" y="120" width="10" height="10"></rect>
            <rect id="Rectangle-Copy-52" fill="#FF931C" x="40" y="120" width="10" height="10"></rect>
            <rect id="Rectangle-Copy-56" fill="#FF931C" x="20" y="120" width="10" height="10"></rect>
            <rect id="Rectangle-Copy-63" fill="#FF931C" x="10" y="120" width="10" height="10"></rect>
            <rect id="Rectangle-Copy-73" fill="#FF931C" x="70" y="110" width="10" height="10"></rect>
            <rect id="Rectangle-Copy-72" fill="#FF931C" x="60" y="110" width="10" height="10"></rect>
            <rect id="Rectangle-Copy-71" fill="#FF931C" x="50" y="110" width="10" height="10"></rect>
            <rect id="Rectangle-Copy-69" fill="#FF931C" x="30" y="110" width="10" height="10"></rect>
            <rect id="Rectangle-Copy-68" fill="#FF931C" x="20" y="110" width="10" height="10"></rect>
            <rect id="Rectangle-Copy-67" fill="#FF931C" x="10" y="110" width="10" height="10"></rect>
            <rect id="Rectangle-Copy-81" fill="#FF931C" x="0" y="100" width="10" height="10"></rect>
            <rect id="Rectangle-Copy-82" fill="#FF931C" x="10" y="100" width="10" height="10"></rect>
            <rect id="Rectangle-Copy-83" fill="#FF931C" x="20" y="100" width="10" height="10"></rect>
            <rect id="Rectangle-Copy-84" fill="#FF931C" x="30" y="100" width="10" height="10"></rect>
            <rect id="Rectangle-Copy-86" fill="#FF931C" x="50" y="100" width="10" height="10"></rect>
            <rect id="Rectangle-Copy-87" fill="#FF931C" x="60" y="100" width="10" height="10"></rect>
            <rect id="Rectangle-Copy-88" fill="#FF931C" x="70" y="100" width="10" height="10"></rect>
            <rect id="Rectangle-Copy-89" fill="#FF931C" x="90" y="100" width="10" height="10"></rect>
            <rect id="Rectangle-Copy-90" fill="#FF931C" x="100" y="100" width="10" height="10"></rect>
            <rect id="Rectangle-Copy-91" fill="#FF931C" x="110" y="100" width="10" height="10"></rect>
            <rect id="Rectangle-Copy-92" fill="#000000" x="120" y="100" width="10" height="10"></rect>
            <rect id="Rectangle-Copy-93" fill="#FF931C" x="130" y="100" width="10" height="10"></rect>
            <rect id="Rectangle-Copy-94" fill="#FF931C" x="140" y="100" width="10" height="10"></rect>
            <rect id="Rectangle-Copy-95" fill="#FF931C" x="150" y="100" width="10" height="10"></rect>
            <rect id="Rectangle-Copy-96" fill="#FF931C" x="160" y="100" width="10" height="10"></rect>
            <rect id="Rectangle-Copy-97" fill="#FF931C" x="160" y="90" width="10" height="10"></rect>
            <rect id="Rectangle-Copy-98" fill="#FF931C" x="150" y="90" width="10" height="10"></rect>
            <rect id="Rectangle-Copy-99" fill="#FF931C" x="140" y="90" width="10" height="10"></rect>
            <rect id="Rectangle-Copy-100" fill="#FF931C" x="130" y="90" width="10" height="10"></rect>
            <rect id="Rectangle-Copy-101" fill="#000000" x="120" y="90" width="10" height="10"></rect>
            <rect id="Rectangle-Copy-102" fill="#FF931C" x="110" y="90" width="10" height="10"></rect>
            <rect id="Rectangle-Copy-103" fill="#FF931C" x="100" y="90" width="10" height="10"></rect>
            <rect id="Rectangle-Copy-104" fill="#FF931C" x="90" y="90" width="10" height="10"></rect>
            <rect id="Rectangle-Copy-105" fill="#FF931C" x="70" y="90" width="10" height="10"></rect>
            <rect id="Rectangle-Copy-106" fill="#FF931C" x="60" y="90" width="10" height="10"></rect>
            <rect id="Rectangle-Copy-107" fill="#FF931C" x="50" y="90" width="10" height="10"></rect>
            <rect id="Rectangle-Copy-109" fill="#FF931C" x="30" y="90" width="10" height="10"></rect>
            <rect id="Rectangle-Copy-110" fill="#FF931C" x="20" y="90" width="10" height="10"></rect>
            <rect id="Rectangle-Copy-111" fill="#FF931C" x="10" y="90" width="10" height="10"></rect>
            <rect id="Rectangle-Copy-112" fill="#FF931C" x="0" y="90" width="10" height="10"></rect>
            <rect id="Rectangle-Copy-144" fill="#FF931C" x="160" y="70" width="10" height="10"></rect>
            <rect id="Rectangle-Copy-143" fill="#FF931C" x="150" y="70" width="10" height="10"></rect>
            <rect id="Rectangle-Copy-142" fill="#FF931C" x="140" y="70" width="10" height="10"></rect>
            <rect id="Rectangle-Copy-141" fill="#FF931C" x="130" y="70" width="10" height="10"></rect>
            <rect id="Rectangle-Copy-140" fill="#000000" x="120" y="70" width="10" height="10"></rect>
            <rect id="Rectangle-Copy-139" fill="#FF931C" x="110" y="70" width="10" height="10"></rect>
            <rect id="Rectangle-Copy-138" fill="#FF931C" x="100" y="70" width="10" height="10"></rect>
            <rect id="Rectangle-Copy-137" fill="#FF931C" x="90" y="70" width="10" height="10"></rect>
            <rect id="Rectangle-Copy-136" fill="#FF931C" x="70" y="70" width="10" height="10"></rect>
            <rect id="Rectangle-Copy-135" fill="#FF931C" x="60" y="70" width="10" height="10"></rect>
            <rect id="Rectangle-Copy-134" fill="#FF931C" x="50" y="70" width="10" height="10"></rect>
            <rect id="Rectangle-Copy-132" fill="#FF931C" x="30" y="70" width="10" height="10"></rect>
            <rect id="Rectangle-Copy-131" fill="#FF931C" x="20" y="70" width="10" height="10"></rect>
            <rect id="Rectangle-Copy-130" fill="#FF931C" x="10" y="70" width="10" height="10"></rect>
            <rect id="Rectangle-Copy-129" fill="#FF931C" x="0" y="70" width="10" height="10"></rect>
            <rect id="Rectangle-Copy-160" fill="#FF931C" x="160" y="60" width="10" height="10"></rect>
            <rect id="Rectangle-Copy-159" fill="#FF931C" x="150" y="60" width="10" height="10"></rect>
            <rect id="Rectangle-Copy-158" fill="#FF931C" x="140" y="60" width="10" height="10"></rect>
            <rect id="Rectangle-Copy-157" fill="#FF931C" x="130" y="60" width="10" height="10"></rect>
            <rect id="Rectangle-Copy-156" fill="#000000" x="120" y="60" width="10" height="10"></rect>
            <rect id="Rectangle-Copy-155" fill="#FF931C" x="110" y="60" width="10" height="10"></rect>
            <rect id="Rectangle-Copy-154" fill="#FF931C" x="100" y="60" width="10" height="10"></rect>
            <rect id="Rectangle-Copy-153" fill="#FF931C" x="90" y="60" width="10" height="10"></rect>
            <rect id="Rectangle-Copy-152" fill="#FF931C" x="70" y="60" width="10" height="10"></rect>
            <rect id="Rectangle-Copy-151" fill="#FF931C" x="60" y="60" width="10" height="10"></rect>
            <rect id="Rectangle-Copy-150" fill="#FF931C" x="50" y="60" width="10" height="10"></rect>
            <rect id="Rectangle-Copy-148" fill="#FF931C" x="30" y="60" width="10" height="10"></rect>
            <rect id="Rectangle-Copy-147" fill="#FF931C" x="20" y="60" width="10" height="10"></rect>
            <rect id="Rectangle-Copy-146" fill="#FF931C" x="10" y="60" width="10" height="10"></rect>
            <rect id="Rectangle-Copy-145" fill="#FF931C" x="0" y="60" width="10" height="10"></rect>
            <rect id="Rectangle-Copy-175" fill="#FF931C" x="150" y="50" width="10" height="10"></rect>
            <rect id="Rectangle-Copy-174" fill="#FF931C" x="140" y="50" width="10" height="10"></rect>
            <rect id="Rectangle-Copy-173" fill="#FF931C" x="130" y="50" width="10" height="10"></rect>
            <rect id="Rectangle-Copy-172" fill="#000000" x="120" y="50" width="10" height="10"></rect>
            <rect id="Rectangle-Copy-171" fill="#FF931C" x="110" y="50" width="10" height="10"></rect>
            <rect id="Rectangle-Copy-170" fill="#FF931C" x="100" y="50" width="10" height="10"></rect>
            <rect id="Rectangle-Copy-169" fill="#FF931C" x="90" y="50" width="10" height="10"></rect>
            <rect id="Rectangle-Copy-168" fill="#FF931C" x="70" y="50" width="10" height="10"></rect>
            <rect id="Rectangle-Copy-167" fill="#FF931C" x="60" y="50" width="10" height="10"></rect>
            <rect id="Rectangle-Copy-166" fill="#FF931C" x="50" y="50" width="10" height="10"></rect>
            <rect id="Rectangle-Copy-165" fill="#000000" x="40" y="50" width="10" height="10"></rect>
            <rect id="Rectangle-Copy-190" fill="#000000" x="40" y="60" width="10" height="10"></rect>
            <rect id="Rectangle-Copy-213" fill="#000000" x="40" y="70" width="10" height="10"></rect>
            <rect id="Rectangle-Copy-164" fill="#FF931C" x="30" y="50" width="10" height="10"></rect>
            <rect id="Rectangle-Copy-163" fill="#FF931C" x="20" y="50" width="10" height="10"></rect>
            <rect id="Rectangle-Copy-162" fill="#FF931C" x="10" y="50" width="10" height="10"></rect>
            <rect id="Rectangle-Copy-189" fill="#FF931C" x="150" y="40" width="10" height="10"></rect>
            <rect id="Rectangle-Copy-188" fill="#FF931C" x="140" y="40" width="10" height="10"></rect>
            <rect id="Rectangle-Copy-187" fill="#000000" x="130" y="40" width="10" height="10"></rect>
            <rect id="Rectangle-Copy-186" fill="#FF931C" x="120" y="40" width="10" height="10"></rect>
            <rect id="Rectangle-Copy-185" fill="#FF931C" x="110" y="40" width="10" height="10"></rect>
            <rect id="Rectangle-Copy-184" fill="#FF931C" x="100" y="40" width="10" height="10"></rect>
            <rect id="Rectangle-Copy-183" fill="#FF931C" x="90" y="40" width="10" height="10"></rect>
            <rect id="Rectangle-Copy-182" fill="#FF931C" x="70" y="40" width="10" height="10"></rect>
            <rect id="Rectangle-Copy-181" fill="#FF931C" x="60" y="40" width="10" height="10"></rect>
            <rect id="Rectangle-Copy-180" fill="#FF931C" x="50" y="40" width="10" height="10"></rect>
            <rect id="Rectangle-Copy-179" fill="#FF931C" x="40" y="40" width="10" height="10"></rect>
            <rect id="Rectangle-Copy-178" fill="#000000" x="30" y="40" width="10" height="10"></rect>
            <rect id="Rectangle-Copy-177" fill="#FF931C" x="20" y="40" width="10" height="10"></rect>
            <rect id="Rectangle-Copy-176" fill="#FF931C" x="10" y="40" width="10" height="10"></rect>
            <rect id="Rectangle-Copy-202" fill="#000000" x="140" y="30" width="10" height="10"></rect>
            <rect id="Rectangle-Copy-201" fill="#FF931C" x="130" y="30" width="10" height="10"></rect>
            <rect id="Rectangle-Copy-200" fill="#FF931C" x="120" y="30" width="10" height="10"></rect>
            <rect id="Rectangle-Copy-199" fill="#FF931C" x="110" y="30" width="10" height="10"></rect>
            <rect id="Rectangle-Copy-198" fill="#FF931C" x="100" y="30" width="10" height="10"></rect>
            <rect id="Rectangle-Copy-197" fill="#FF931C" x="90" y="30" width="10" height="10"></rect>
            <rect id="Rectangle-Copy-212" fill="#FF931C" x="130" y="20" width="10" height="10"></rect>
            <rect id="Rectangle-Copy-211" fill="#FF931C" x="120" y="20" width="10" height="10"></rect>
            <rect id="Rectangle-Copy-210" fill="#FF931C" x="110" y="20" width="10" height="10"></rect>
            <rect id="Rectangle-Copy-209" fill="#FF931C" x="100" y="20" width="10" height="10"></rect>
            <rect id="Rectangle-Copy-203" fill="#FF931C" x="90" y="20" width="10" height="10"></rect>
            <rect id="Rectangle-Copy-196" fill="#FF931C" x="70" y="30" width="10" height="10"></rect>
            <rect id="Rectangle-Copy-195" fill="#FF931C" x="60" y="30" width="10" height="10"></rect>
            <rect id="Rectangle-Copy-194" fill="#FF931C" x="50" y="30" width="10" height="10"></rect>
            <rect id="Rectangle-Copy-193" fill="#FF931C" x="40" y="30" width="10" height="10"></rect>
            <rect id="Rectangle-Copy-192" fill="#FF931C" x="30" y="30" width="10" height="10"></rect>
            <rect id="Rectangle-Copy-191" fill="#000000" x="20" y="30" width="10" height="10"></rect>
            <rect id="Rectangle-Copy-208" fill="#FF931C" x="70" y="20" width="10" height="10"></rect>
            <rect id="Rectangle-Copy-207" fill="#FF931C" x="60" y="20" width="10" height="10"></rect>
            <rect id="Rectangle-Copy-206" fill="#FF931C" x="50" y="20" width="10" height="10"></rect>
            <rect id="Rectangle-Copy-205" fill="#FF931C" x="40" y="20" width="10" height="10"></rect>
            <rect id="Rectangle-Copy-204" fill="#FF931C" x="30" y="20" width="10" height="10"></rect>
            <rect id="Rectangle-Copy-221" fill="#FF931C" x="120" y="10" width="10" height="10"></rect>
            <rect id="Rectangle-Copy-220" fill="#FF931C" x="110" y="10" width="10" height="10"></rect>
            <rect id="Rectangle-Copy-219" fill="#FF931C" x="100" y="10" width="10" height="10"></rect>
            <rect id="Rectangle-Copy-218" fill="#FF931C" x="90" y="10" width="10" height="10"></rect>
            <rect id="Rectangle-Copy-223" fill="#FF931C" x="100" y="0" width="10" height="10"></rect>
            <rect id="Rectangle-Copy-222" fill="#FF931C" x="90" y="0" width="10" height="10"></rect>
            <rect id="Rectangle-Copy-217" fill="#FF931C" x="70" y="10" width="10" height="10"></rect>
            <rect id="Rectangle-Copy-216" fill="#FF931C" x="60" y="10" width="10" height="10"></rect>
            <rect id="Rectangle-Copy-225" fill="#FF931C" x="70" y="0" width="10" height="10"></rect>
            <rect id="Rectangle-Copy-224" fill="#FF931C" x="60" y="0" width="10" height="10"></rect>
            <rect id="Rectangle-Copy-215" fill="#FF931C" x="50" y="10" width="10" height="10"></rect>
            <rect id="Rectangle-Copy-214" fill="#FF931C" x="40" y="10" width="10" height="10"></rect>
            <rect id="Rectangle-Copy-62" fill="#FF931C" x="140" y="120" width="10" height="10"></rect>
            <rect id="Rectangle-Copy-64" fill="#FF931C" x="150" y="120" width="10" height="10"></rect>
            <rect id="Rectangle-Copy-61" fill="#000000" x="130" y="120" width="10" height="10"></rect>
            <rect id="Rectangle-Copy-60" fill="#FF931C" x="120" y="120" width="10" height="10"></rect>
            <rect id="Rectangle-Copy-59" fill="#FF931C" x="110" y="120" width="10" height="10"></rect>
            <rect id="Rectangle-Copy-58" fill="#FF931C" x="100" y="120" width="10" height="10"></rect>
            <rect id="Rectangle-Copy-57" fill="#FF931C" x="90" y="120" width="10" height="10"></rect>
            <rect id="Rectangle-Copy-80" fill="#FF931C" x="140" y="110" width="10" height="10"></rect>
            <rect id="Rectangle-Copy-79" fill="#FF931C" x="150" y="110" width="10" height="10"></rect>
            <rect id="Rectangle-Copy-78" fill="#FF931C" x="130" y="110" width="10" height="10"></rect>
            <rect id="Rectangle-Copy-77" fill="#000000" x="120" y="110" width="10" height="10"></rect>
            <rect id="Rectangle-Copy-76" fill="#FF931C" x="110" y="110" width="10" height="10"></rect>
            <rect id="Rectangle-Copy-75" fill="#FF931C" x="100" y="110" width="10" height="10"></rect>
            <rect id="Rectangle-Copy-74" fill="#FF931C" x="90" y="110" width="10" height="10"></rect>
        </g>
    </g>
</svg>